<svg xmlns="http://www.w3.org/2000/svg" viewBox="0 0 128 128"><title>icon11.1glyph</title><g id="chair_table" data-name="chair table"><path d="M87.12,115.45a3.92,3.92,0,0,0,7.83,0V82.15l-7.83,3.67Z"/><path d="M12.21,26.56A3,3,0,0,0,8.8,24a3.08,3.08,0,0,0-2.6,3.41L12,69.61a13.78,13.78,0,0,0,.91,3.4,20.16,20.16,0,0,1,1,11.79L7.46,115.68a3,3,0,1,0,6,1.26l7.4-35.25A6,6,0,0,1,25.68,77V70.83H18.26Z"/><path d="M32.36,81.82v33.63a3.92,3.92,0,0,0,7.83,0v-30l-7.6-3.55Z"/><path d="M119.2,24a3,3,0,0,0-3.41,2.6l-6.05,44.27h-7.42V77a6,6,0,0,1,4.86,4.67l7.4,35.25a3,3,0,0,0,3.6,2.35,3.05,3.05,0,0,0,2.36-3.61L114.06,84.8A20.16,20.16,0,0,1,115.12,73a13.83,13.83,0,0,0,.91-3.39l5.77-42.26a3,3,0,0,0-2.6-3.4Z"/><path d="M90.32,47.36H37.68a8,8,0,0,0-8,8V71.07a8.6,8.6,0,0,0,2.1,5.37,23.51,23.51,0,0,0,2.51,1.87L60.61,90.63a8,8,0,0,0,6.78,0L93.71,78.31a10.54,10.54,0,0,0,3.35-3,7.26,7.26,0,0,0,1.26-4.29V55.36A8,8,0,0,0,90.32,47.36Z"/></g></svg>