<svg xmlns="http://www.w3.org/2000/svg" viewBox="0 0 128 128"><title>icon11.1glyph</title><g id="delivery_order" data-name="delivery order"><path d="M83.65,94.82a10.14,10.14,0,0,0-6.44,3.06l-3,3a4.39,4.39,0,0,1-6.2,0L28.08,61.05a4.39,4.39,0,0,1-1.25-3.6,4.68,4.68,0,0,1,1.42-2.77l3-3a10,10,0,0,0,3-6.34,9.51,9.51,0,0,0-10.1-10.1,12,12,0,0,0-6.86,3.51,28.12,28.12,0,0,0-6.16,30.32c3.69,9,10.62,18.63,20.6,28.61s19.53,16.84,28.47,20.52c10.38,4.26,22.66,2.21,30.28-6.17,3.44-3.78,4.5-10.15,1-14A9.68,9.68,0,0,0,83.65,94.82Z"/><path d="M83.93,32.66a15,15,0,0,0-14.85,13h29.7A15,15,0,0,0,83.93,32.66Z"/><path d="M85.89,27.8a1.05,1.05,0,0,0-1.06-1.06H83a1,1,0,0,0-1,1.05v.87h3.92Z"/><path d="M102.24,49.64H65.62a.74.74,0,0,0-.74.74V52a.74.74,0,0,0,.74.74h36.62A.74.74,0,0,0,103,52V50.38A.74.74,0,0,0,102.24,49.64Z"/><path d="M83.93,6.81a35.93,35.93,0,1,0,35.93,35.93A36,36,0,0,0,83.93,6.81ZM107,52a4.75,4.75,0,0,1-4.74,4.74H65.62A4.75,4.75,0,0,1,60.88,52V50.38a4.75,4.75,0,0,1,4.17-4.71A19,19,0,0,1,78,29.62V27.79a5,5,0,0,1,5-5.05h1.82a5,5,0,0,1,5,5.05v1.83a19,19,0,0,1,12.92,16.05A4.75,4.75,0,0,1,107,50.38Z"/></g></svg>